# xmcd
# Track frame offsets:
# 150
# 14868
# 30530
# 44194
# 58812
# 76412
# 92564
# 104631
# 116929
# 132572
# 145462
# 158509
# 173452
#
# Disc length: 2510 seconds
# Revision: 2
# Processed by: cddbd v1.5PL3 Copyright (c) Steve Scherf et al.
# Submitted via: VisiTrax 2.9.9.202 - For more info visit www.synapsa.com
#
DISCID=bc09cc0d
DTITLE=Tamra Rosanes - Country Party
DYEAR=2002
DGENRE=Country
TTITLE0=Every Little Thing
TTITLE1=Achy Breaky Heart
TTITLE2=Let Your Love Flow
TTITLE3=On The Road Again
TTITLE4=Rose Garden
TTITLE5=Jambalaya
TTITLE6=Nine To Five
TTITLE7=Act Naturally
TTITLE8=All Shook Up
TTITLE9=Six Days On The Road
TTITLE10=When Will I Be Loved
TTITLE11=Oh Lonesome Me
TTITLE12=Country Party
EXTD=
EXTT0=
EXTT1=
EXTT2=
EXTT3=
EXTT4=
EXTT5=
EXTT6=
EXTT7=
EXTT8=
EXTT9=
EXTT10=
EXTT11=
EXTT12=
PLAYORDER=
